<?xml version="1.0" standalone="no"?><!DOCTYPE svg PUBLIC "-//W3C//DTD SVG 1.1//EN" "http://www.w3.org/Graphics/SVG/1.1/DTD/svg11.dtd"><svg height="33" node-id="1" sillyvg="true" template-height="33" template-width="39" version="1.1" viewBox="0 0 39 33" width="39" xmlns="http://www.w3.org/2000/svg" xmlns:xlink="http://www.w3.org/1999/xlink"><defs node-id="30"></defs><g node-id="32"><g node-id="33"><g node-id="34"><path d="M 12.41 3.82 L 12.90 4.28 L 14.20 5.52 L 14.39 5.71 L 14.59 5.88 L 14.75 6.02 L 14.82 6.07 L 14.83 6.11 L 15.00 6.09 L 16.20 5.82 L 17.65 5.55 L 18.51 5.47 L 19.38 5.46 L 20.52 5.54 L 20.85 5.58 L 21.33 5.63 L 21.78 5.68 L 22.12 5.72 L 22.32 5.72 L 22.25 5.70 L 22.27 5.68 L 22.54 5.36 L 22.63 5.25 L 22.89 4.89 L 23.85 3.53 L 24.16 3.10 L 25.18 1.88 L 25.61 1.57 L 25.98 1.47 L 26.58 1.75 L 27.36 2.78 L 28.02 4.13 L 28.62 5.81 L 29.06 7.53 L 29.25 9.01 L 29.12 9.37 L 28.78 9.53 L 28.42 9.41 L 28.25 9.06 L 27.72 6.36 L 26.77 3.68 L 26.26 2.68 L 26.03 2.47 L 24.79 3.93 L 23.70 5.48 L 23.42 5.85 L 22.79 6.56 L 22.37 6.72 L 22.19 6.72 L 21.67 6.68 L 20.74 6.57 L 20.13 6.51 L 19.34 6.46 L 18.56 6.47 L 17.79 6.54 L 16.41 6.80 L 15.47 7.01 L 14.84 7.11 L 14.47 7.03 L 13.85 6.56 L 13.39 6.14 L 12.33 5.12 L 12.11 4.91 L 10.83 3.84 L 10.43 3.64 L 10.27 3.86 L 9.88 5.28 L 9.18 9.88 L 8.99 10.22 L 8.63 10.32 L 8.29 10.14 L 8.18 9.77 L 8.27 9.06 L 8.71 6.01 L 9.13 4.23 L 9.76 2.97 L 10.38 2.64 L 11.11 2.84 L 12.41 3.82 Z" fill="#333333" fill-rule="nonzero" group-id="1,2,3" id="路径-17" node-id="8" stroke="none" target-height="8.849999" target-width="21.07" target-x="8.18" target-y="1.47"></path><path d="M 6.99 10.64 L 7.32 10.46 L 7.69 10.58 L 7.87 10.91 L 7.76 11.28 L 5.90 13.91 L 4.65 16.46 L 3.94 18.97 L 3.73 21.49 L 4.01 24.05 L 4.62 25.90 L 5.64 27.39 L 7.08 28.58 L 9.06 29.48 L 11.72 30.05 L 15.24 30.20 L 15.60 30.34 L 15.76 30.69 L 15.62 31.04 L 15.27 31.20 L 11.52 31.03 L 8.66 30.40 L 6.50 29.40 L 4.90 28.06 L 3.75 26.37 L 3.03 24.25 L 2.73 21.49 L 2.96 18.80 L 3.71 16.12 L 5.03 13.42 L 6.99 10.64 Z" fill="#333333" fill-rule="nonzero" group-id="1,2,3" id="路径-18" node-id="9" stroke="none" target-height="20.740002" target-width="13.030001" target-x="2.73" target-y="10.46"></path><g node-id="36"><path d="M 30.84 9.39 L 30.48 9.25 L 30.13 9.40 L 29.99 9.76 L 30.13 10.11 L 32.26 12.52 L 33.77 14.93 L 34.73 17.36 L 35.21 19.84 L 35.20 22.41 L 34.78 24.32 L 33.93 25.91 L 32.61 27.24 L 30.74 28.35 L 28.16 29.19 L 24.67 29.71 L 24.33 29.88 L 24.21 30.24 L 24.38 30.58 L 24.75 30.70 L 28.46 30.15 L 31.24 29.22 L 33.28 27.99 L 34.73 26.49 L 35.70 24.69 L 36.19 22.51 L 36.20 19.74 L 35.70 17.08 L 34.67 14.50 L 33.08 11.95 L 30.84 9.39 Z" fill="#333333" fill-rule="nonzero" group-id="1,2,3,5" id="路径-18备份" node-id="10" stroke="none" target-height="21.45" target-width="11.990002" target-x="24.21" target-y="9.25"></path></g><path d="M 1.73 21.12 L 1.82 21.13 L 5.87 21.92 L 6.19 22.13 L 6.26 22.50 L 6.09 22.80 L 5.77 22.91 L 5.68 22.90 L 1.63 22.11 L 1.31 21.90 L 1.24 21.52 L 1.41 21.23 L 1.73 21.12 Z" fill="#333333" fill-rule="nonzero" group-id="1,2,3" id="直线-2" node-id="11" stroke="none" target-height="1.789999" target-width="5.0200005" target-x="1.24" target-y="21.12"></path><path d="M 37.62 19.24 L 37.53 19.26 L 33.59 20.47 L 33.29 20.71 L 33.26 21.09 L 33.46 21.36 L 33.79 21.44 L 33.88 21.42 L 37.82 20.21 L 38.12 19.97 L 38.15 19.59 L 37.95 19.32 L 37.62 19.24 Z" fill="#333333" fill-rule="nonzero" group-id="1,2,3,6" id="直线-2备份-2" node-id="13" stroke="none" target-height="2.2000008" target-width="4.890003" target-x="33.26" target-y="19.24"></path><path d="M 26.68 20.11 L 25.98 20.36 L 25.32 21.09 L 25.26 21.47 L 25.48 21.78 L 25.85 21.85 L 26.17 21.63 L 26.53 21.20 L 26.73 21.11 L 26.95 21.18 L 27.35 21.57 L 27.69 21.75 L 28.05 21.65 L 28.24 21.31 L 28.13 20.95 L 27.40 20.29 L 26.68 20.11 Z" fill="#333333" fill-rule="nonzero" group-id="1,2,3,6" id="直线-2备份-6" node-id="14" stroke="none" target-height="1.7399998" target-width="2.9799995" target-x="25.26" target-y="20.11"></path><path d="M 33.85 21.94 L 33.49 22.06 L 33.31 22.41 L 33.41 22.74 L 33.69 22.93 L 33.78 22.94 L 37.80 23.23 L 38.16 23.11 L 38.33 22.77 L 38.24 22.44 L 37.96 22.25 L 37.87 22.23 L 33.85 21.94 Z" fill="#333333" fill-rule="nonzero" group-id="1,2,3,6" id="直线-2备份-3" node-id="15" stroke="none" target-height="1.289999" target-width="5.0200005" target-x="33.31" target-y="21.94"></path><path d="M 5.76 23.41 L 6.14 23.50 L 6.34 23.82 L 6.28 24.16 L 6.03 24.38 L 5.94 24.40 L 1.97 25.11 L 1.60 25.03 L 1.39 24.70 L 1.45 24.36 L 1.71 24.15 L 1.80 24.12 L 5.76 23.41 Z" fill="#333333" fill-rule="nonzero" group-id="1,2,3" id="直线-2备份" node-id="16" stroke="none" target-height="1.7000008" target-width="4.9500003" target-x="1.39" target-y="23.41"></path><path d="M 11.91 23.09 L 12.60 22.76 L 12.86 22.04 L 12.53 21.35 L 11.81 21.09 L 11.11 21.42 L 10.86 22.14 L 11.19 22.83 L 11.91 23.09 Z" fill="#333333" fill-rule="evenodd" group-id="1,2,3" id="椭圆形" node-id="17" stroke="none" target-height="2" target-width="2" target-x="10.86" target-y="21.09"></path><path d="M 9.50 26.72 L 10.28 26.52 L 10.89 26.06 L 11.28 25.41 L 11.40 24.62 L 11.20 23.84 L 10.74 23.24 L 10.09 22.84 L 9.29 22.73 L 8.52 22.93 L 7.91 23.38 L 7.52 24.04 L 7.40 24.83 L 7.60 25.60 L 8.06 26.21 L 8.71 26.60 L 9.50 26.72 Z" fill="#f6b2b1" fill-rule="evenodd" group-id="1,2,3" id="椭圆形备份-6" node-id="18" stroke="none" target-height="3.9899998" target-width="3.9999995" target-x="7.4" target-y="22.73"></path><path d="M 29.48 25.67 L 30.25 25.47 L 30.86 25.01 L 31.25 24.36 L 31.37 23.57 L 31.17 22.80 L 30.71 22.19 L 30.06 21.80 L 29.27 21.68 L 28.49 21.88 L 27.89 22.34 L 27.49 22.99 L 27.37 23.78 L 27.57 24.56 L 28.03 25.16 L 28.68 25.55 L 29.48 25.67 Z" fill="#f6b2b1" fill-rule="evenodd" group-id="1,2,3" id="椭圆形备份-7" node-id="19" stroke="none" target-height="3.9899998" target-width="4" target-x="27.37" target-y="21.68"></path><path d="M 19.28 22.20 L 19.95 21.99 L 20.11 21.66 L 19.91 21.34 L 19.23 21.20 L 18.58 21.41 L 18.43 21.75 L 18.62 22.07 L 19.28 22.20 Z" fill="#333333" fill-rule="evenodd" group-id="1,2,3" id="椭圆形备份-8" node-id="20" stroke="none" target-height="1" target-width="1.6800003" target-x="18.43" target-y="21.2"></path><path d="M 19.80 22.45 L 19.68 23.24 L 19.29 23.90 L 18.68 24.35 L 17.90 24.55 L 17.15 24.45 L 16.51 24.09 L 16.05 23.53 L 15.82 22.81 L 15.80 22.66 L 15.77 22.04 L 15.90 21.68 L 16.24 21.51 L 16.57 21.62 L 16.76 21.90 L 16.77 21.99 L 16.80 22.61 L 17.13 23.30 L 17.85 23.56 L 18.51 23.27 L 18.80 22.62 L 18.80 22.51 L 18.77 21.88 L 18.89 21.52 L 19.24 21.36 L 19.57 21.46 L 19.75 21.74 L 19.76 21.83 L 19.80 22.45 Z" fill="#333333" fill-rule="nonzero" group-id="1,2,3,7" id="矩形" node-id="21" stroke="none" target-height="3.1899986" target-width="4.029999" target-x="15.77" target-y="21.36"></path><path d="M 22.79 22.30 L 22.67 23.09 L 22.28 23.74 L 21.67 24.20 L 20.90 24.40 L 20.14 24.29 L 19.51 23.93 L 19.05 23.37 L 18.81 22.65 L 18.80 22.51 L 18.77 21.88 L 18.89 21.52 L 19.24 21.36 L 19.57 21.46 L 19.75 21.74 L 19.76 21.83 L 19.80 22.45 L 20.13 23.14 L 20.85 23.40 L 21.50 23.11 L 21.79 22.46 L 21.79 22.35 L 21.76 21.73 L 21.89 21.37 L 22.23 21.20 L 22.56 21.30 L 22.75 21.58 L 22.76 21.67 L 22.79 22.30 Z" fill="#333333" fill-rule="nonzero" group-id="1,2,3,8" id="矩形备份-11" node-id="22" stroke="none" target-height="3.1999989" target-width="4.0200005" target-x="18.77" target-y="21.2"></path><path d="M 10.77 5.90 L 10.41 6.34 L 10.09 7.54 L 9.93 8.75 L 9.97 9.22 L 10.12 9.40 L 10.88 9.18 L 11.99 8.53 L 12.59 7.89 L 12.22 7.12 L 11.40 6.24 L 10.77 5.90 Z" fill="#f6b2b1" fill-rule="evenodd" group-id="1,2,3" id="路径-19" node-id="23" stroke="none" target-height="3.4999995" target-width="2.6599998" target-x="9.93" target-y="5.9"></path><path d="M 26.11 5.10 L 26.51 5.50 L 26.95 6.66 L 27.24 7.85 L 27.25 8.32 L 27.13 8.51 L 26.35 8.37 L 25.18 7.84 L 24.51 7.26 L 24.80 6.46 L 25.52 5.50 L 26.11 5.10 Z" fill="#f6b2b1" fill-rule="evenodd" group-id="1,2,3,9" id="路径-19备份" node-id="24" stroke="none" target-height="3.4100003" target-width="2.7399998" target-x="24.51" target-y="5.1"></path></g><g node-id="35"><path d="M 3.65 6.33 L 3.96 6.18 L 4.28 6.27 L 4.35 6.33 L 5.85 7.83 L 6.00 8.18 L 5.85 8.54 L 5.54 8.68 L 5.22 8.59 L 5.15 8.54 L 3.65 7.04 L 3.50 6.68 L 3.65 6.33 Z" fill="#ffc41d" fill-rule="nonzero" group-id="1,2,4" id="直线-2备份-4" node-id="26" stroke="none" target-height="2.5000005" target-width="2.5" target-x="3.5" target-y="6.18"></path><path d="M 2.05 7.96 L 2.30 7.72 L 2.64 7.70 L 2.72 7.74 L 4.72 8.74 L 4.97 9.02 L 4.95 9.41 L 4.70 9.64 L 4.36 9.66 L 4.28 9.63 L 2.28 8.63 L 2.03 8.34 L 2.05 7.96 Z" fill="#ffc41d" fill-rule="nonzero" group-id="1,2,4" id="直线-2备份-4" node-id="27" stroke="none" target-height="1.96" target-width="2.9399998" target-x="2.03" target-y="7.7"></path><path d="M 1.60 9.69 L 4.10 10.19 L 4.42 10.41 L 4.49 10.78 L 4.31 11.07 L 3.99 11.18 L 3.90 11.17 L 1.40 10.67 L 1.08 10.46 L 1.01 10.08 L 1.19 9.79 L 1.51 9.68 L 1.60 9.69 Z" fill="#ffc41d" fill-rule="nonzero" group-id="1,2,4" id="直线-2备份-5" node-id="28" stroke="none" target-height="1.5" target-width="3.4799998" target-x="1.01" target-y="9.68"></path></g></g></g></svg>